# xmcd CD database file
#
# Track frame offsets:
#	150
#	34685
#	56197
#	86965
#	116165
#	145377
#	170785
#	193650
#	220075
#	252700
#
# Disc length: 3817 seconds
#
# Revision: 0
# Processed by: cddbd v1.5PL3 Copyright (c) Steve Scherf et al.
# Submitted via: CDex 1.51
#
DISCID=a30ee70a
DTITLE=aqua the sound of the nature Espande 2 - L'armonia della passione
DYEAR=1996
DGENRE=New Age
TTITLE0=Felice del Gaudio - Irta
TTITLE1=Bernward koch - Summernight
TTITLE2=Haman - Una
TTITLE3=Seroka/Benatar - Deep Probe
TTITLE4=Marco Dalpane e Lamine Konté - Étoiles de Dakar
TTITLE5=Andrea Perini - Ananke
TTITLE6=Haman - Hot July
TTITLE7=Stefano Mirandola - Aquiloni
TTITLE8=Mister Ed - Ultra Beige
TTITLE9=Torrigiani e Neri - Sezione 25
EXTD=YEAR: 1996
EXTT0=
EXTT1=
EXTT2=
EXTT3=
EXTT4=
EXTT5=
EXTT6=
EXTT7=
EXTT8=
EXTT9=
PLAYORDER=
